<svg width="18" height="18" viewBox="0 0 18 18" fill="none" xmlns="http://www.w3.org/2000/svg">
    <path d="m17 .75-2 14.5-6 2-6-2L1 .75h16z" stroke="#41414E" stroke-width="1.25" stroke-linecap="round" stroke-linejoin="round"/>
    <path d="M9.002 13.11c-.55 0-1.02-.088-1.408-.264a2.907 2.907 0 0 1-.957-.671 2.89 2.89 0 0 1-.539-.847c-.11-.3-.165-.576-.165-.825h1.573l.033.187c.03.125.092.268.187.429a1.3 1.3 0 0 0 .44.429c.198.125.466.187.803.187s.616-.07.836-.209c.22-.147.385-.33.495-.55a1.553 1.553 0 0 0 0-1.397 1.324 1.324 0 0 0-.495-.55c-.213-.147-.48-.22-.803-.22-.25 0-.455.04-.616.121-.161.073-.29.161-.385.264a1.208 1.208 0 0 0-.209.264l-.055.11H6.065L6.78 4.86h4.796v1.474H7.935l-.286 1.859h.044l.22-.22c.117-.11.293-.213.528-.308.235-.103.546-.154.935-.154.587 0 1.085.132 1.496.396.41.264.719.605.924 1.023a2.844 2.844 0 0 1 .121 2.354 2.78 2.78 0 0 1-.572.924c-.257.271-.58.491-.968.66-.389.161-.847.242-1.375.242z" fill="#41414E"/>
</svg>
